<mxfile host="app.diagrams.net" agent="Mozilla/5.0 (Windows NT 10.0; Win64; x64) AppleWebKit/537.36 (KHTML, like Gecko) Chrome/131.0.0.0 Safari/537.36" version="25.0.1">
  <diagram name="Page-1" id="u681L3nMVyve64kM8XXH">
    <mxGraphModel dx="1035" dy="511" grid="1" gridSize="10" guides="1" tooltips="1" connect="1" arrows="1" fold="1" page="1" pageScale="1" pageWidth="827" pageHeight="1169" math="0" shadow="0">
      <root>
        <mxCell id="0" />
        <mxCell id="1" parent="0" />
        <mxCell id="uHq5jvhFukHIdlzhlTPt-64" value="" style="rounded=0;whiteSpace=wrap;html=1;" parent="1" vertex="1">
          <mxGeometry x="364" y="480" width="100" height="20" as="geometry" />
        </mxCell>
        <mxCell id="uHq5jvhFukHIdlzhlTPt-3" value="" style="rounded=1;whiteSpace=wrap;html=1;" parent="1" vertex="1">
          <mxGeometry x="154" y="350" width="510" height="190" as="geometry" />
        </mxCell>
        <mxCell id="uHq5jvhFukHIdlzhlTPt-4" value="" style="rounded=0;whiteSpace=wrap;html=1;" parent="1" vertex="1">
          <mxGeometry x="204" y="400" width="390" height="100" as="geometry" />
        </mxCell>
        <mxCell id="uHq5jvhFukHIdlzhlTPt-6" value="" style="shape=waypoint;sketch=0;fillStyle=solid;size=6;pointerEvents=1;points=[];fillColor=none;resizable=0;rotatable=0;perimeter=centerPerimeter;snapToPoint=1;" parent="1" vertex="1">
          <mxGeometry x="205" y="350" width="20" height="20" as="geometry" />
        </mxCell>
        <mxCell id="uHq5jvhFukHIdlzhlTPt-8" value="" style="shape=waypoint;sketch=0;fillStyle=solid;size=6;pointerEvents=1;points=[];fillColor=none;resizable=0;rotatable=0;perimeter=centerPerimeter;snapToPoint=1;" parent="1" vertex="1">
          <mxGeometry x="235" y="350" width="20" height="20" as="geometry" />
        </mxCell>
        <mxCell id="uHq5jvhFukHIdlzhlTPt-9" value="" style="shape=waypoint;sketch=0;fillStyle=solid;size=6;pointerEvents=1;points=[];fillColor=none;resizable=0;rotatable=0;perimeter=centerPerimeter;snapToPoint=1;" parent="1" vertex="1">
          <mxGeometry x="295" y="350" width="20" height="20" as="geometry" />
        </mxCell>
        <mxCell id="uHq5jvhFukHIdlzhlTPt-10" value="" style="shape=waypoint;sketch=0;fillStyle=solid;size=6;pointerEvents=1;points=[];fillColor=none;resizable=0;rotatable=0;perimeter=centerPerimeter;snapToPoint=1;" parent="1" vertex="1">
          <mxGeometry x="265" y="350" width="20" height="20" as="geometry" />
        </mxCell>
        <mxCell id="uHq5jvhFukHIdlzhlTPt-11" value="" style="shape=waypoint;sketch=0;fillStyle=solid;size=6;pointerEvents=1;points=[];fillColor=none;resizable=0;rotatable=0;perimeter=centerPerimeter;snapToPoint=1;" parent="1" vertex="1">
          <mxGeometry x="325" y="350" width="20" height="20" as="geometry" />
        </mxCell>
        <mxCell id="uHq5jvhFukHIdlzhlTPt-14" value="" style="shape=waypoint;sketch=0;fillStyle=solid;size=6;pointerEvents=1;points=[];fillColor=none;resizable=0;rotatable=0;perimeter=centerPerimeter;snapToPoint=1;" parent="1" vertex="1">
          <mxGeometry x="355" y="350" width="20" height="20" as="geometry" />
        </mxCell>
        <mxCell id="uHq5jvhFukHIdlzhlTPt-15" value="" style="shape=waypoint;sketch=0;fillStyle=solid;size=6;pointerEvents=1;points=[];fillColor=none;resizable=0;rotatable=0;perimeter=centerPerimeter;snapToPoint=1;" parent="1" vertex="1">
          <mxGeometry x="415" y="350" width="20" height="20" as="geometry" />
        </mxCell>
        <mxCell id="uHq5jvhFukHIdlzhlTPt-16" value="" style="shape=waypoint;sketch=0;fillStyle=solid;size=6;pointerEvents=1;points=[];fillColor=none;resizable=0;rotatable=0;perimeter=centerPerimeter;snapToPoint=1;" parent="1" vertex="1">
          <mxGeometry x="384" y="350" width="20" height="20" as="geometry" />
        </mxCell>
        <mxCell id="uHq5jvhFukHIdlzhlTPt-18" value="" style="shape=waypoint;sketch=0;fillStyle=solid;size=6;pointerEvents=1;points=[];fillColor=none;resizable=0;rotatable=0;perimeter=centerPerimeter;snapToPoint=1;" parent="1" vertex="1">
          <mxGeometry x="174" y="350" width="20" height="20" as="geometry" />
        </mxCell>
        <mxCell id="uHq5jvhFukHIdlzhlTPt-19" value="" style="shape=waypoint;sketch=0;fillStyle=solid;size=6;pointerEvents=1;points=[];fillColor=none;resizable=0;rotatable=0;perimeter=centerPerimeter;snapToPoint=1;" parent="1" vertex="1">
          <mxGeometry x="445" y="350" width="20" height="20" as="geometry" />
        </mxCell>
        <mxCell id="uHq5jvhFukHIdlzhlTPt-20" value="" style="shape=waypoint;sketch=0;fillStyle=solid;size=6;pointerEvents=1;points=[];fillColor=none;resizable=0;rotatable=0;perimeter=centerPerimeter;snapToPoint=1;" parent="1" vertex="1">
          <mxGeometry x="475" y="350" width="20" height="20" as="geometry" />
        </mxCell>
        <mxCell id="uHq5jvhFukHIdlzhlTPt-21" value="" style="shape=waypoint;sketch=0;fillStyle=solid;size=6;pointerEvents=1;points=[];fillColor=none;resizable=0;rotatable=0;perimeter=centerPerimeter;snapToPoint=1;" parent="1" vertex="1">
          <mxGeometry x="504" y="350" width="20" height="20" as="geometry" />
        </mxCell>
        <mxCell id="uHq5jvhFukHIdlzhlTPt-22" value="" style="line;strokeWidth=2;direction=south;html=1;" parent="1" vertex="1">
          <mxGeometry x="179" y="200" width="10" height="150" as="geometry" />
        </mxCell>
        <mxCell id="uHq5jvhFukHIdlzhlTPt-24" value="" style="line;strokeWidth=2;direction=south;html=1;" parent="1" vertex="1">
          <mxGeometry x="210" y="200" width="10" height="150" as="geometry" />
        </mxCell>
        <mxCell id="uHq5jvhFukHIdlzhlTPt-25" value="" style="line;strokeWidth=2;direction=south;html=1;" parent="1" vertex="1">
          <mxGeometry x="509" y="200" width="10" height="150" as="geometry" />
        </mxCell>
        <mxCell id="uHq5jvhFukHIdlzhlTPt-26" value="" style="line;strokeWidth=2;direction=south;html=1;" parent="1" vertex="1">
          <mxGeometry x="239" y="200" width="10" height="150" as="geometry" />
        </mxCell>
        <mxCell id="uHq5jvhFukHIdlzhlTPt-27" value="" style="line;strokeWidth=2;direction=south;html=1;" parent="1" vertex="1">
          <mxGeometry x="480" y="200" width="10" height="150" as="geometry" />
        </mxCell>
        <mxCell id="uHq5jvhFukHIdlzhlTPt-28" value="" style="line;strokeWidth=2;direction=south;html=1;" parent="1" vertex="1">
          <mxGeometry x="389" y="200" width="10" height="150" as="geometry" />
        </mxCell>
        <mxCell id="uHq5jvhFukHIdlzhlTPt-31" value="" style="line;strokeWidth=2;direction=south;html=1;" parent="1" vertex="1">
          <mxGeometry x="270" y="200" width="10" height="150" as="geometry" />
        </mxCell>
        <mxCell id="uHq5jvhFukHIdlzhlTPt-32" value="" style="line;strokeWidth=2;direction=south;html=1;" parent="1" vertex="1">
          <mxGeometry x="360" y="200" width="10" height="150" as="geometry" />
        </mxCell>
        <mxCell id="uHq5jvhFukHIdlzhlTPt-33" value="" style="line;strokeWidth=2;direction=south;html=1;" parent="1" vertex="1">
          <mxGeometry x="330" y="200" width="10" height="150" as="geometry" />
        </mxCell>
        <mxCell id="uHq5jvhFukHIdlzhlTPt-35" value="" style="line;strokeWidth=2;direction=south;html=1;" parent="1" vertex="1">
          <mxGeometry x="300" y="200" width="10" height="150" as="geometry" />
        </mxCell>
        <mxCell id="uHq5jvhFukHIdlzhlTPt-36" value="" style="line;strokeWidth=2;direction=south;html=1;" parent="1" vertex="1">
          <mxGeometry x="420" y="200" width="10" height="150" as="geometry" />
        </mxCell>
        <mxCell id="uHq5jvhFukHIdlzhlTPt-38" value="" style="line;strokeWidth=2;direction=south;html=1;" parent="1" vertex="1">
          <mxGeometry x="450" y="200" width="10" height="150" as="geometry" />
        </mxCell>
        <mxCell id="uHq5jvhFukHIdlzhlTPt-39" value="&lt;font style=&quot;font-size: 15px;&quot;&gt;RG1602A(16x2)&lt;/font&gt;" style="text;html=1;align=center;verticalAlign=middle;whiteSpace=wrap;rounded=0;" parent="1" vertex="1">
          <mxGeometry x="339.75" y="500" width="108.5" height="30" as="geometry" />
        </mxCell>
        <mxCell id="uHq5jvhFukHIdlzhlTPt-41" value="" style="rounded=0;whiteSpace=wrap;html=1;" parent="1" vertex="1">
          <mxGeometry x="154" y="40" width="520" height="160" as="geometry" />
        </mxCell>
        <mxCell id="uHq5jvhFukHIdlzhlTPt-48" value="&lt;font&gt;LED.K&lt;/font&gt;" style="text;html=1;align=center;verticalAlign=middle;whiteSpace=wrap;rounded=0;fontSize=9;" parent="1" vertex="1">
          <mxGeometry x="174" y="170" width="20" height="10" as="geometry" />
        </mxCell>
        <mxCell id="uHq5jvhFukHIdlzhlTPt-55" value="&lt;font&gt;LED.A&lt;/font&gt;" style="text;html=1;align=center;verticalAlign=middle;whiteSpace=wrap;rounded=0;fontSize=9;" parent="1" vertex="1">
          <mxGeometry x="205" y="170" width="20" height="10" as="geometry" />
        </mxCell>
        <mxCell id="uHq5jvhFukHIdlzhlTPt-56" value="" style="line;strokeWidth=2;direction=south;html=1;" parent="1" vertex="1">
          <mxGeometry x="539" y="200" width="10" height="150" as="geometry" />
        </mxCell>
        <mxCell id="uHq5jvhFukHIdlzhlTPt-57" value="" style="line;strokeWidth=2;direction=south;html=1;" parent="1" vertex="1">
          <mxGeometry x="569" y="200" width="10" height="150" as="geometry" />
        </mxCell>
        <mxCell id="uHq5jvhFukHIdlzhlTPt-58" value="" style="line;strokeWidth=2;direction=south;html=1;" parent="1" vertex="1">
          <mxGeometry x="599" y="200" width="10" height="150" as="geometry" />
        </mxCell>
        <mxCell id="uHq5jvhFukHIdlzhlTPt-59" value="" style="shape=waypoint;sketch=0;fillStyle=solid;size=6;pointerEvents=1;points=[];fillColor=none;resizable=0;rotatable=0;perimeter=centerPerimeter;snapToPoint=1;" parent="1" vertex="1">
          <mxGeometry x="534" y="350" width="20" height="20" as="geometry" />
        </mxCell>
        <mxCell id="uHq5jvhFukHIdlzhlTPt-60" value="" style="shape=waypoint;sketch=0;fillStyle=solid;size=6;pointerEvents=1;points=[];fillColor=none;resizable=0;rotatable=0;perimeter=centerPerimeter;snapToPoint=1;" parent="1" vertex="1">
          <mxGeometry x="564" y="350" width="20" height="20" as="geometry" />
        </mxCell>
        <mxCell id="uHq5jvhFukHIdlzhlTPt-61" value="" style="shape=waypoint;sketch=0;fillStyle=solid;size=6;pointerEvents=1;points=[];fillColor=none;resizable=0;rotatable=0;perimeter=centerPerimeter;snapToPoint=1;" parent="1" vertex="1">
          <mxGeometry x="594" y="350" width="20" height="20" as="geometry" />
        </mxCell>
        <mxCell id="uHq5jvhFukHIdlzhlTPt-62" value="" style="shape=waypoint;sketch=0;fillStyle=solid;size=6;pointerEvents=1;points=[];fillColor=none;resizable=0;rotatable=0;perimeter=centerPerimeter;snapToPoint=1;" parent="1" vertex="1">
          <mxGeometry x="624" y="350" width="20" height="20" as="geometry" />
        </mxCell>
        <mxCell id="uHq5jvhFukHIdlzhlTPt-63" value="" style="line;strokeWidth=2;direction=south;html=1;" parent="1" vertex="1">
          <mxGeometry x="629" y="200" width="10" height="150" as="geometry" />
        </mxCell>
        <mxCell id="uHq5jvhFukHIdlzhlTPt-66" value="&lt;font&gt;DB7&lt;/font&gt;" style="text;html=1;align=center;verticalAlign=middle;whiteSpace=wrap;rounded=0;fontSize=9;" parent="1" vertex="1">
          <mxGeometry x="229" y="170" width="30" height="10" as="geometry" />
        </mxCell>
        <mxCell id="uHq5jvhFukHIdlzhlTPt-68" value="&lt;font&gt;DB6&lt;/font&gt;" style="text;html=1;align=center;verticalAlign=middle;whiteSpace=wrap;rounded=0;fontSize=9;" parent="1" vertex="1">
          <mxGeometry x="260" y="170" width="30" height="10" as="geometry" />
        </mxCell>
        <mxCell id="uHq5jvhFukHIdlzhlTPt-69" value="&lt;font&gt;DB5&lt;/font&gt;" style="text;html=1;align=center;verticalAlign=middle;whiteSpace=wrap;rounded=0;fontSize=9;" parent="1" vertex="1">
          <mxGeometry x="290" y="170" width="30" height="10" as="geometry" />
        </mxCell>
        <mxCell id="uHq5jvhFukHIdlzhlTPt-70" value="&lt;font&gt;DB4&lt;/font&gt;" style="text;html=1;align=center;verticalAlign=middle;whiteSpace=wrap;rounded=0;fontSize=9;" parent="1" vertex="1">
          <mxGeometry x="320" y="170" width="30" height="10" as="geometry" />
        </mxCell>
        <mxCell id="uHq5jvhFukHIdlzhlTPt-74" value="&lt;font&gt;DB3&lt;/font&gt;" style="text;html=1;align=center;verticalAlign=middle;whiteSpace=wrap;rounded=0;fontSize=9;" parent="1" vertex="1">
          <mxGeometry x="350" y="170" width="30" height="10" as="geometry" />
        </mxCell>
        <mxCell id="uHq5jvhFukHIdlzhlTPt-75" value="&lt;font&gt;DB2&lt;/font&gt;" style="text;html=1;align=center;verticalAlign=middle;whiteSpace=wrap;rounded=0;fontSize=9;" parent="1" vertex="1">
          <mxGeometry x="380" y="170" width="30" height="10" as="geometry" />
        </mxCell>
        <mxCell id="uHq5jvhFukHIdlzhlTPt-76" value="&lt;font&gt;DB1&lt;/font&gt;" style="text;html=1;align=center;verticalAlign=middle;whiteSpace=wrap;rounded=0;fontSize=9;" parent="1" vertex="1">
          <mxGeometry x="410" y="170" width="30" height="10" as="geometry" />
        </mxCell>
        <mxCell id="uHq5jvhFukHIdlzhlTPt-79" value="&lt;font&gt;DB0&lt;/font&gt;" style="text;html=1;align=center;verticalAlign=middle;whiteSpace=wrap;rounded=0;fontSize=9;" parent="1" vertex="1">
          <mxGeometry x="440" y="170" width="30" height="10" as="geometry" />
        </mxCell>
        <mxCell id="uHq5jvhFukHIdlzhlTPt-80" value="EN" style="text;html=1;align=center;verticalAlign=middle;whiteSpace=wrap;rounded=0;fontSize=9;" parent="1" vertex="1">
          <mxGeometry x="470" y="170" width="30" height="10" as="geometry" />
        </mxCell>
        <mxCell id="uHq5jvhFukHIdlzhlTPt-81" value="RW" style="text;html=1;align=center;verticalAlign=middle;whiteSpace=wrap;rounded=0;fontSize=9;" parent="1" vertex="1">
          <mxGeometry x="499" y="170" width="30" height="10" as="geometry" />
        </mxCell>
        <mxCell id="uHq5jvhFukHIdlzhlTPt-82" value="VEE" style="text;html=1;align=center;verticalAlign=middle;whiteSpace=wrap;rounded=0;fontSize=9;" parent="1" vertex="1">
          <mxGeometry x="559" y="170" width="30" height="10" as="geometry" />
        </mxCell>
        <mxCell id="uHq5jvhFukHIdlzhlTPt-83" value="RS" style="text;html=1;align=center;verticalAlign=middle;whiteSpace=wrap;rounded=0;fontSize=9;" parent="1" vertex="1">
          <mxGeometry x="529" y="170" width="30" height="10" as="geometry" />
        </mxCell>
        <mxCell id="uHq5jvhFukHIdlzhlTPt-86" value="VDD" style="text;html=1;align=center;verticalAlign=middle;whiteSpace=wrap;rounded=0;fontSize=9;" parent="1" vertex="1">
          <mxGeometry x="589" y="170" width="30" height="10" as="geometry" />
        </mxCell>
        <mxCell id="uHq5jvhFukHIdlzhlTPt-87" value="VSS" style="text;html=1;align=center;verticalAlign=middle;whiteSpace=wrap;rounded=0;fontSize=9;" parent="1" vertex="1">
          <mxGeometry x="619" y="170" width="30" height="10" as="geometry" />
        </mxCell>
        <mxCell id="uHq5jvhFukHIdlzhlTPt-89" value="" style="rounded=0;whiteSpace=wrap;html=1;" parent="1" vertex="1">
          <mxGeometry x="315" y="450" width="19" height="30" as="geometry" />
        </mxCell>
        <mxCell id="uHq5jvhFukHIdlzhlTPt-90" value="" style="rounded=0;whiteSpace=wrap;html=1;" parent="1" vertex="1">
          <mxGeometry x="315" y="410" width="19" height="30" as="geometry" />
        </mxCell>
        <mxCell id="uHq5jvhFukHIdlzhlTPt-91" value="" style="rounded=0;whiteSpace=wrap;html=1;" parent="1" vertex="1">
          <mxGeometry x="291" y="450" width="19" height="30" as="geometry" />
        </mxCell>
        <mxCell id="uHq5jvhFukHIdlzhlTPt-92" value="" style="rounded=0;whiteSpace=wrap;html=1;" parent="1" vertex="1">
          <mxGeometry x="290" y="410" width="19" height="30" as="geometry" />
        </mxCell>
        <mxCell id="uHq5jvhFukHIdlzhlTPt-93" value="" style="rounded=0;whiteSpace=wrap;html=1;" parent="1" vertex="1">
          <mxGeometry x="265" y="450" width="19" height="30" as="geometry" />
        </mxCell>
        <mxCell id="uHq5jvhFukHIdlzhlTPt-94" value="" style="rounded=0;whiteSpace=wrap;html=1;" parent="1" vertex="1">
          <mxGeometry x="265" y="410" width="19" height="30" as="geometry" />
        </mxCell>
        <mxCell id="uHq5jvhFukHIdlzhlTPt-95" value="" style="rounded=0;whiteSpace=wrap;html=1;" parent="1" vertex="1">
          <mxGeometry x="239" y="450" width="19" height="30" as="geometry" />
        </mxCell>
        <mxCell id="uHq5jvhFukHIdlzhlTPt-96" value="" style="rounded=0;whiteSpace=wrap;html=1;" parent="1" vertex="1">
          <mxGeometry x="240" y="410" width="19" height="30" as="geometry" />
        </mxCell>
        <mxCell id="uHq5jvhFukHIdlzhlTPt-97" value="" style="rounded=0;whiteSpace=wrap;html=1;" parent="1" vertex="1">
          <mxGeometry x="215" y="450" width="19" height="30" as="geometry" />
        </mxCell>
        <mxCell id="uHq5jvhFukHIdlzhlTPt-98" value="" style="rounded=0;whiteSpace=wrap;html=1;" parent="1" vertex="1">
          <mxGeometry x="215" y="410" width="19" height="30" as="geometry" />
        </mxCell>
        <mxCell id="uHq5jvhFukHIdlzhlTPt-99" value="" style="rounded=0;whiteSpace=wrap;html=1;" parent="1" vertex="1">
          <mxGeometry x="340" y="410" width="19" height="30" as="geometry" />
        </mxCell>
        <mxCell id="uHq5jvhFukHIdlzhlTPt-100" value="" style="rounded=0;whiteSpace=wrap;html=1;" parent="1" vertex="1">
          <mxGeometry x="364" y="410" width="19" height="30" as="geometry" />
        </mxCell>
        <mxCell id="uHq5jvhFukHIdlzhlTPt-101" value="" style="rounded=0;whiteSpace=wrap;html=1;" parent="1" vertex="1">
          <mxGeometry x="389" y="410" width="19" height="30" as="geometry" />
        </mxCell>
        <mxCell id="uHq5jvhFukHIdlzhlTPt-102" value="" style="rounded=0;whiteSpace=wrap;html=1;" parent="1" vertex="1">
          <mxGeometry x="415" y="410" width="19" height="30" as="geometry" />
        </mxCell>
        <mxCell id="uHq5jvhFukHIdlzhlTPt-103" value="" style="rounded=0;whiteSpace=wrap;html=1;" parent="1" vertex="1">
          <mxGeometry x="441" y="410" width="19" height="30" as="geometry" />
        </mxCell>
        <mxCell id="uHq5jvhFukHIdlzhlTPt-105" value="" style="rounded=0;whiteSpace=wrap;html=1;" parent="1" vertex="1">
          <mxGeometry x="465" y="410" width="19" height="30" as="geometry" />
        </mxCell>
        <mxCell id="uHq5jvhFukHIdlzhlTPt-106" value="" style="rounded=0;whiteSpace=wrap;html=1;" parent="1" vertex="1">
          <mxGeometry x="490" y="410" width="19" height="30" as="geometry" />
        </mxCell>
        <mxCell id="uHq5jvhFukHIdlzhlTPt-107" value="" style="rounded=0;whiteSpace=wrap;html=1;" parent="1" vertex="1">
          <mxGeometry x="515" y="410" width="19" height="30" as="geometry" />
        </mxCell>
        <mxCell id="uHq5jvhFukHIdlzhlTPt-108" value="" style="rounded=0;whiteSpace=wrap;html=1;" parent="1" vertex="1">
          <mxGeometry x="540" y="410" width="19" height="30" as="geometry" />
        </mxCell>
        <mxCell id="uHq5jvhFukHIdlzhlTPt-110" value="" style="rounded=0;whiteSpace=wrap;html=1;" parent="1" vertex="1">
          <mxGeometry x="565" y="410" width="19" height="30" as="geometry" />
        </mxCell>
        <mxCell id="uHq5jvhFukHIdlzhlTPt-113" value="" style="rounded=0;whiteSpace=wrap;html=1;" parent="1" vertex="1">
          <mxGeometry x="389" y="450" width="19" height="30" as="geometry" />
        </mxCell>
        <mxCell id="uHq5jvhFukHIdlzhlTPt-114" value="" style="rounded=0;whiteSpace=wrap;html=1;" parent="1" vertex="1">
          <mxGeometry x="365" y="450" width="19" height="30" as="geometry" />
        </mxCell>
        <mxCell id="uHq5jvhFukHIdlzhlTPt-115" value="" style="rounded=0;whiteSpace=wrap;html=1;" parent="1" vertex="1">
          <mxGeometry x="340" y="450" width="19" height="30" as="geometry" />
        </mxCell>
        <mxCell id="uHq5jvhFukHIdlzhlTPt-116" value="" style="rounded=0;whiteSpace=wrap;html=1;" parent="1" vertex="1">
          <mxGeometry x="465" y="450" width="19" height="30" as="geometry" />
        </mxCell>
        <mxCell id="uHq5jvhFukHIdlzhlTPt-117" value="" style="rounded=0;whiteSpace=wrap;html=1;" parent="1" vertex="1">
          <mxGeometry x="440" y="450" width="19" height="30" as="geometry" />
        </mxCell>
        <mxCell id="uHq5jvhFukHIdlzhlTPt-118" value="" style="rounded=0;whiteSpace=wrap;html=1;" parent="1" vertex="1">
          <mxGeometry x="415" y="450" width="19" height="30" as="geometry" />
        </mxCell>
        <mxCell id="uHq5jvhFukHIdlzhlTPt-119" value="" style="rounded=0;whiteSpace=wrap;html=1;" parent="1" vertex="1">
          <mxGeometry x="515" y="450" width="19" height="30" as="geometry" />
        </mxCell>
        <mxCell id="uHq5jvhFukHIdlzhlTPt-120" value="" style="rounded=0;whiteSpace=wrap;html=1;" parent="1" vertex="1">
          <mxGeometry x="490" y="450" width="19" height="30" as="geometry" />
        </mxCell>
        <mxCell id="uHq5jvhFukHIdlzhlTPt-122" value="" style="rounded=0;whiteSpace=wrap;html=1;" parent="1" vertex="1">
          <mxGeometry x="540" y="450" width="19" height="30" as="geometry" />
        </mxCell>
        <mxCell id="uHq5jvhFukHIdlzhlTPt-123" value="" style="rounded=0;whiteSpace=wrap;html=1;" parent="1" vertex="1">
          <mxGeometry x="565" y="450" width="19" height="30" as="geometry" />
        </mxCell>
        <mxCell id="uHq5jvhFukHIdlzhlTPt-125" value="NC" style="text;html=1;align=center;verticalAlign=middle;whiteSpace=wrap;rounded=0;fontSize=9;" parent="1" vertex="1">
          <mxGeometry x="205" y="370" width="20" height="10" as="geometry" />
        </mxCell>
        <mxCell id="uHq5jvhFukHIdlzhlTPt-126" value="CONTR" style="text;html=1;align=center;verticalAlign=middle;whiteSpace=wrap;rounded=0;fontSize=9;" parent="1" vertex="1">
          <mxGeometry x="554" y="370" width="40" height="10" as="geometry" />
        </mxCell>
        <mxCell id="uHq5jvhFukHIdlzhlTPt-127" value="NC" style="text;html=1;align=center;verticalAlign=middle;whiteSpace=wrap;rounded=0;fontSize=9;" parent="1" vertex="1">
          <mxGeometry x="174" y="370" width="20" height="10" as="geometry" />
        </mxCell>
        <mxCell id="uHq5jvhFukHIdlzhlTPt-128" value="D3" style="text;html=1;align=center;verticalAlign=middle;whiteSpace=wrap;rounded=0;fontSize=9;" parent="1" vertex="1">
          <mxGeometry x="355" y="370" width="20" height="10" as="geometry" />
        </mxCell>
        <mxCell id="uHq5jvhFukHIdlzhlTPt-129" value="D7" style="text;html=1;align=center;verticalAlign=middle;whiteSpace=wrap;rounded=0;fontSize=9;" parent="1" vertex="1">
          <mxGeometry x="235" y="370" width="20" height="10" as="geometry" />
        </mxCell>
        <mxCell id="uHq5jvhFukHIdlzhlTPt-130" value="D2" style="text;html=1;align=center;verticalAlign=middle;whiteSpace=wrap;rounded=0;fontSize=9;" parent="1" vertex="1">
          <mxGeometry x="385" y="370" width="20" height="10" as="geometry" />
        </mxCell>
        <mxCell id="uHq5jvhFukHIdlzhlTPt-131" value="D6" style="text;html=1;align=center;verticalAlign=middle;whiteSpace=wrap;rounded=0;fontSize=9;" parent="1" vertex="1">
          <mxGeometry x="265" y="370" width="20" height="10" as="geometry" />
        </mxCell>
        <mxCell id="uHq5jvhFukHIdlzhlTPt-132" value="D1" style="text;html=1;align=center;verticalAlign=middle;whiteSpace=wrap;rounded=0;fontSize=9;" parent="1" vertex="1">
          <mxGeometry x="415" y="370" width="20" height="10" as="geometry" />
        </mxCell>
        <mxCell id="uHq5jvhFukHIdlzhlTPt-133" value="D5" style="text;html=1;align=center;verticalAlign=middle;whiteSpace=wrap;rounded=0;fontSize=9;" parent="1" vertex="1">
          <mxGeometry x="295" y="370" width="20" height="10" as="geometry" />
        </mxCell>
        <mxCell id="uHq5jvhFukHIdlzhlTPt-135" value="D0" style="text;html=1;align=center;verticalAlign=middle;whiteSpace=wrap;rounded=0;fontSize=9;" parent="1" vertex="1">
          <mxGeometry x="445" y="370" width="20" height="10" as="geometry" />
        </mxCell>
        <mxCell id="uHq5jvhFukHIdlzhlTPt-136" value="D4" style="text;html=1;align=center;verticalAlign=middle;whiteSpace=wrap;rounded=0;fontSize=9;" parent="1" vertex="1">
          <mxGeometry x="325" y="370" width="20" height="10" as="geometry" />
        </mxCell>
        <mxCell id="2olckZ55s99aHlfucAB_-2" value="E" style="text;html=1;align=center;verticalAlign=middle;whiteSpace=wrap;rounded=0;fontSize=9;" vertex="1" parent="1">
          <mxGeometry x="475" y="370" width="20" height="10" as="geometry" />
        </mxCell>
        <mxCell id="2olckZ55s99aHlfucAB_-3" value="RW" style="text;html=1;align=center;verticalAlign=middle;whiteSpace=wrap;rounded=0;fontSize=9;" vertex="1" parent="1">
          <mxGeometry x="504" y="370" width="20" height="10" as="geometry" />
        </mxCell>
        <mxCell id="2olckZ55s99aHlfucAB_-4" value="Vcc" style="text;html=1;align=center;verticalAlign=middle;whiteSpace=wrap;rounded=0;fontSize=9;" vertex="1" parent="1">
          <mxGeometry x="594" y="370" width="20" height="10" as="geometry" />
        </mxCell>
        <mxCell id="2olckZ55s99aHlfucAB_-5" value="RS" style="text;html=1;align=center;verticalAlign=middle;whiteSpace=wrap;rounded=0;fontSize=9;" vertex="1" parent="1">
          <mxGeometry x="534" y="370" width="20" height="10" as="geometry" />
        </mxCell>
        <mxCell id="2olckZ55s99aHlfucAB_-6" value="GND" style="text;html=1;align=center;verticalAlign=middle;whiteSpace=wrap;rounded=0;fontSize=9;" vertex="1" parent="1">
          <mxGeometry x="624" y="370" width="20" height="10" as="geometry" />
        </mxCell>
        <mxCell id="2olckZ55s99aHlfucAB_-8" value="&lt;span style=&quot;font-size: 20px;&quot;&gt;I2C&lt;/span&gt;" style="text;html=1;align=center;verticalAlign=middle;whiteSpace=wrap;rounded=0;" vertex="1" parent="1">
          <mxGeometry x="383" y="70" width="60" height="30" as="geometry" />
        </mxCell>
        <mxCell id="2olckZ55s99aHlfucAB_-9" value="GND" style="text;html=1;align=center;verticalAlign=middle;whiteSpace=wrap;rounded=0;" vertex="1" parent="1">
          <mxGeometry x="155" y="50" width="60" height="20" as="geometry" />
        </mxCell>
        <mxCell id="2olckZ55s99aHlfucAB_-10" value="SCL" style="text;html=1;align=center;verticalAlign=middle;whiteSpace=wrap;rounded=0;" vertex="1" parent="1">
          <mxGeometry x="155" y="75" width="60" height="20" as="geometry" />
        </mxCell>
        <mxCell id="2olckZ55s99aHlfucAB_-11" value="SDA" style="text;html=1;align=center;verticalAlign=middle;whiteSpace=wrap;rounded=0;" vertex="1" parent="1">
          <mxGeometry x="155" y="100" width="60" height="20" as="geometry" />
        </mxCell>
        <mxCell id="2olckZ55s99aHlfucAB_-12" value="VCC" style="text;html=1;align=center;verticalAlign=middle;whiteSpace=wrap;rounded=0;" vertex="1" parent="1">
          <mxGeometry x="155" y="130" width="60" height="20" as="geometry" />
        </mxCell>
        <mxCell id="2olckZ55s99aHlfucAB_-13" value="" style="line;strokeWidth=2;html=1;" vertex="1" parent="1">
          <mxGeometry x="100" y="55" width="54" height="10" as="geometry" />
        </mxCell>
        <mxCell id="2olckZ55s99aHlfucAB_-14" value="" style="line;strokeWidth=2;html=1;" vertex="1" parent="1">
          <mxGeometry x="100" y="80" width="54" height="10" as="geometry" />
        </mxCell>
        <mxCell id="2olckZ55s99aHlfucAB_-15" value="" style="line;strokeWidth=2;html=1;" vertex="1" parent="1">
          <mxGeometry x="100" y="105" width="54" height="10" as="geometry" />
        </mxCell>
        <mxCell id="2olckZ55s99aHlfucAB_-16" value="" style="line;strokeWidth=2;html=1;" vertex="1" parent="1">
          <mxGeometry x="101" y="135" width="54" height="10" as="geometry" />
        </mxCell>
      </root>
    </mxGraphModel>
  </diagram>
</mxfile>
